PathFileType	4	(X/Y/Z)	/home/nbianco/projects/addbio/data/OpenCap2022/Processed/subject4//results/MarkerData/walkingTS1.trc
DataRate	CameraRate	NumFrames	NumMarkers	Units	OrigDataRate	OrigDataStartFrame	OrigNumFrames
100	100	8	51	m	100	17	143
Frame#	Time	C7			L.ASIS			L.PSIS			L_5meta			L_HJC			L_HJC_reg			L_Shoulder			L_Sternum			L_ankle			L_calc			L_elbow_lat			L_elbow_med			L_forearm			L_humerus			L_knee			L_sh2			L_sh3			L_shank_antsup			L_thigh1			L_thigh2			L_thigh3			L_thigh4			L_toe			L_wrist_radius			L_wrist_ulna			R_HJC			R_HJC_reg			R_Shoulder			R_Sternum			R_elbow_lat			R_elbow_med			R_forearm			R_humerus			R_wrist_radius			R_wrist_ulna			r.ASIS			r.PSIS			r_5meta			r_ankle			r_calc			r_knee			r_sh2			r_sh3			r_sh4			r_shank_antsup			r_thigh1			r_thigh2			r_thigh3			r_thigh4			r_thigh5			r_toe		
		X1	Y1	Z1	X2	Y2	Z2	X3	Y3	Z3	X4	Y4	Z4	X5	Y5	Z5	X6	Y6	Z6	X7	Y7	Z7	X8	Y8	Z8	X9	Y9	Z9	X10	Y10	Z10	X11	Y11	Z11	X12	Y12	Z12	X13	Y13	Z13	X14	Y14	Z14	X15	Y15	Z15	X16	Y16	Z16	X17	Y17	Z17	X18	Y18	Z18	X19	Y19	Z19	X20	Y20	Z20	X21	Y21	Z21	X22	Y22	Z22	X23	Y23	Z23	X24	Y24	Z24	X25	Y25	Z25	X26	Y26	Z26	X27	Y27	Z27	X28	Y28	Z28	X29	Y29	Z29	X30	Y30	Z30	X31	Y31	Z31	X32	Y32	Z32	X33	Y33	Z33	X34	Y34	Z34	X35	Y35	Z35	X36	Y36	Z36	X37	Y37	Z37	X38	Y38	Z38	X39	Y39	Z39	X40	Y40	Z40	X41	Y41	Z41	X42	Y42	Z42	X43	Y43	Z43	X44	Y44	Z44	X45	Y45	Z45	X46	Y46	Z46	X47	Y47	Z47	X48	Y48	Z48	X49	Y49	Z49	X50	Y50	Z50	X51	Y51	Z51

18	0.17	-0.128046	1.42335	-0.169221	0.0448829	0.923838	-0.322498	-0.157872	0.960089	-0.251565	-0.422419	0.117102	-0.338617	-0.0334122	0.8399	-0.276943	-0.0174507	0.850733	-0.271665	-0.0405555	1.4015	-0.324359	-0.00104953	1.35429	-0.191877	-0.390269	0.236862	-0.301747	-0.449571	0.287136	-0.24243	-0.0682323	1.08027	-0.435194	-0.0837474	1.06463	-0.357445	-0.0165419	1.02565	-0.451455	-0.0128	1.26481	-0.394543	-0.0484528	0.452056	-0.342129	-0.118734	0.436435	-0.361117	-0.225485	0.377013	-0.360578	-0.0838877	0.36315	-0.32812	0.0312587	0.702489	-0.352588	0.0470107	0.564511	-0.334535	-0.072647	0.686962	-0.385273	-0.0598007	0.556395	-0.35719	-0.371999	0.0824563	-0.292323	0.0373022	0.855144	-0.444917	0.00225312	0.859892	-0.481518	-0.0367885	0.857329	-0.0881977	-0.0298471	0.862494	-0.104614	-0.0575701	1.37542	-0.0045679	-0.00167754	1.3494	-0.146508	-0.103265	1.05309	0.0486848	-0.108276	1.04586	-0.0183913	-0.0521666	0.985988	0.0723294	-0.0190647	1.24035	0.0337408	-0.00344622	0.821612	0.0431473	-0.0447375	0.821638	0.0771971	0.0469777	0.949048	-0.0693662	-0.164972	0.966821	-0.155831	0.215871	0.0444777	-0.0628705	0.0948134	0.0880336	-0.0987009	0.0363145	0.0586899	-0.153007	0.107389	0.498762	-0.0611981	0.153986	0.293036	-0.0846768	0.0925059	0.401419	-0.0318936	0.0851488	0.286731	-0.0366659	0.154055	0.405833	-0.0755566	0.0673692	0.779398	-0.0268658	0.109356	0.678119	-0.0491191	0.0733097	0.63211	-0.0136634	-0.0304723	0.732056	0.000710595	0.0174187	0.627402	-0.0252079	0.249031	0.07744	-0.116899
19	0.18	-0.116342	1.42579	-0.168152	0.0573654	0.926957	-0.320871	-0.145673	0.96202	-0.250011	-0.392514	0.120971	-0.338548	-0.0207604	0.842554	-0.2756	-0.00526993	0.853258	-0.269862	-0.0292031	1.40407	-0.323449	0.0102594	1.35692	-0.19104	-0.363906	0.240375	-0.300027	-0.424859	0.288614	-0.24066	-0.057251	1.08247	-0.433069	-0.0719287	1.06719	-0.355123	-0.00597259	1.02773	-0.449907	-0.00146121	1.26735	-0.393544	-0.0224337	0.454208	-0.340981	-0.0918572	0.438874	-0.359348	-0.198915	0.379955	-0.358698	-0.0573449	0.365308	-0.326682	0.0496864	0.706386	-0.350543	0.0692504	0.56882	-0.332628	-0.0537115	0.687892	-0.383875	-0.037024	0.557689	-0.356002	-0.341785	0.0868421	-0.291926	0.0477777	0.857153	-0.443405	0.0121933	0.861761	-0.479474	-0.0245908	0.859456	-0.0868229	-0.0178313	0.865351	-0.102764	-0.0458887	1.37833	-0.00361948	0.00992599	1.35217	-0.145587	-0.0891179	1.05577	0.0502635	-0.0945914	1.04846	-0.0167144	-0.0373205	0.989052	0.0736888	-0.00624028	1.24353	0.0344498	0.0126965	0.825116	0.0445712	-0.0287283	0.824899	0.0789397	0.0586927	0.95133	-0.0675204	-0.15285	0.968931	-0.154505	0.215933	0.0442543	-0.0626655	0.0948895	0.0879212	-0.0986362	0.0363852	0.0588356	-0.152967	0.112589	0.49863	-0.0595679	0.156226	0.292289	-0.0829552	0.09555	0.401425	-0.0307853	0.0865347	0.286826	-0.0360675	0.157775	0.404994	-0.0734397	0.0774915	0.780256	-0.0253479	0.118054	0.678157	-0.0476422	0.0810556	0.632749	-0.0121225	-0.0209928	0.73457	0.0022288	0.0243306	0.629621	-0.0230977	0.249203	0.0770557	-0.116751
20	0.19	-0.104697	1.42841	-0.16726	0.0696028	0.930291	-0.319408	-0.133678	0.964381	-0.248314	-0.360538	0.123243	-0.338286	-0.00851828	0.84548	-0.274467	0.00660586	0.85601	-0.268381	-0.0180108	1.40667	-0.322755	0.0215091	1.35966	-0.190383	-0.336935	0.24252	-0.298219	-0.400116	0.288088	-0.238965	-0.0461724	1.08469	-0.431156	-0.0603644	1.06974	-0.353126	0.00468908	1.02983	-0.448381	0.0098355	1.26989	-0.392629	0.00317483	0.457114	-0.339665	-0.0655252	0.441621	-0.357556	-0.172466	0.382535	-0.356753	-0.0308632	0.367954	-0.325065	0.0678689	0.710731	-0.348383	0.0911185	0.573676	-0.33057	-0.034914	0.68938	-0.382423	-0.0145269	0.559644	-0.354647	-0.309325	0.0902622	-0.291161	0.0583339	0.859181	-0.44179	0.0223224	0.863629	-0.477435	-0.0126289	0.861499	-0.0856264	-0.00607315	0.868065	-0.101189	-0.0341837	1.3815	-0.00284953	0.0214186	1.35506	-0.144866	-0.0752549	1.05875	0.0518782	-0.0811054	1.05133	-0.0149963	-0.0227447	0.992423	0.075057	0.00637878	1.24696	0.0351411	0.0286969	0.82904	0.0459967	-0.0127824	0.828514	0.0805777	0.0702888	0.953376	-0.0657736	-0.140906	0.971257	-0.152991	0.215967	0.0440513	-0.0624481	0.0949868	0.0878878	-0.098549	0.0364758	0.0590303	-0.152936	0.117228	0.498549	-0.0579801	0.158137	0.291693	-0.081226	0.098098	0.401496	-0.0296774	0.0876142	0.287002	-0.0354498	0.160995	0.404289	-0.0713231	0.0871628	0.781094	-0.0238109	0.12624	0.678194	-0.0461653	0.0882946	0.633344	-0.0106209	-0.0120055	0.736975	0.00338641	0.0310189	0.631687	-0.0211772	0.249385	0.0766993	-0.116601
21	0.2	-0.0931439	1.43118	-0.166552	0.0816066	0.933763	-0.31803	-0.121852	0.96713	-0.246569	-0.327165	0.123928	-0.337702	0.00336588	0.84862	-0.273478	0.0182384	0.858963	-0.267138	-0.00692649	1.40929	-0.32224	0.032746	1.36249	-0.189867	-0.309461	0.243258	-0.29639	-0.375052	0.285732	-0.237299	-0.035	1.08691	-0.429432	-0.049015	1.07229	-0.351407	0.0154767	1.03193	-0.446856	0.0211088	1.27241	-0.391765	0.0283728	0.460666	-0.338172	-0.0397157	0.444537	-0.355785	-0.14609	0.384597	-0.354863	-0.00441928	0.370984	-0.323263	0.0857929	0.71543	-0.346177	0.112622	0.578983	-0.32841	-0.0162732	0.691328	-0.380941	0.00766332	0.562154	-0.353172	-0.275285	0.0926111	-0.290063	0.0689799	0.861231	-0.440083	0.0326523	0.865517	-0.475419	-0.000905359	0.863534	-0.0845562	0.00544466	0.870686	-0.0998416	-0.022456	1.3849	-0.00224216	0.0328197	1.35805	-0.144315	-0.061662	1.06202	0.0535388	-0.0678065	1.05444	-0.0132309	-0.00842221	0.996064	0.0764306	0.0187889	1.25061	0.035846	0.044449	0.833284	0.0474185	0.00308099	0.832429	0.0821034	0.0817899	0.955283	-0.0641115	-0.129132	0.973805	-0.151363	0.215976	0.0438478	-0.0622265	0.0951144	0.0879281	-0.0984434	0.0365827	0.0592631	-0.152909	0.121386	0.498528	-0.0564675	0.159831	0.29124	-0.079602	0.100355	0.401627	-0.0285789	0.0885995	0.287247	-0.0347899	0.16386	0.403733	-0.069334	0.0964388	0.781904	-0.0222539	0.13396	0.678225	-0.0446839	0.0950733	0.63392	-0.0091669	-0.00337423	0.739211	0.00422211	0.0375875	0.633582	-0.0195082	0.249578	0.0763545	-0.11645
22	0.21	-0.0816993	1.43407	-0.166031	0.0934162	0.937309	-0.316649	-0.110167	0.970185	-0.244861	-0.292835	0.123116	-0.336722	0.0149698	0.851908	-0.272568	0.0296847	0.862079	-0.266026	0.00409652	1.41191	-0.321869	0.043992	1.36538	-0.189468	-0.281541	0.242588	-0.294583	-0.349464	0.281671	-0.235641	-0.0237573	1.08913	-0.427857	-0.0378184	1.07482	-0.349897	0.0264019	1.03406	-0.445323	0.0323689	1.2749	-0.390932	0.0531567	0.464752	-0.336493	-0.0144138	0.447513	-0.354051	-0.119761	0.386044	-0.353111	0.0219888	0.374314	-0.321281	0.103424	0.720381	-0.343993	0.133747	0.584641	-0.326198	0.00216286	0.693625	-0.379454	0.0295001	0.565102	-0.351622	-0.240105	0.0939029	-0.288673	0.0797285	0.8633	-0.438291	0.0431912	0.867434	-0.473436	0.0105781	0.865616	-0.0835595	0.0167485	0.873266	-0.0986564	-0.0107283	1.38848	-0.00178682	0.0441531	1.3611	-0.143904	-0.0483202	1.06552	0.0552491	-0.0547075	1.05775	-0.0114156	0.00567724	0.999938	0.077806	0.0309908	1.25444	0.036578	0.0599214	0.837769	0.0488236	0.0188573	0.836593	0.0835275	0.093183	0.957139	-0.0625128	-0.117522	0.976548	-0.149703	0.215966	0.0436379	-0.0620123	0.0952645	0.0880238	-0.0983277	0.0366987	0.0595194	-0.152877	0.125127	0.498561	-0.0550558	0.161384	0.290911	-0.0781679	0.102471	0.401802	-0.0275089	0.0896319	0.287541	-0.0340861	0.166471	0.403321	-0.0675671	0.105373	0.782651	-0.0206924	0.141251	0.678226	-0.0431905	0.101418	0.634487	-0.00776994	0.00504553	0.741219	0.00482219	0.0440019	0.635328	-0.0181178	0.249773	0.0760204	-0.116299
23	0.22	-0.0703615	1.437	-0.165692	0.105091	0.940871	-0.315189	-0.098603	0.973433	-0.243258	-0.257713	0.120947	-0.335339	0.0263825	0.855275	-0.27168	0.0409899	0.865313	-0.264938	0.015092	1.4145	-0.321611	0.0552515	1.3683	-0.189171	-0.253153	0.240525	-0.292815	-0.323224	0.275988	-0.234017	-0.0124824	1.09134	-0.426386	-0.026699	1.07731	-0.348513	0.037453	1.0362	-0.443781	0.0436166	1.27732	-0.390128	0.0775124	0.469253	-0.334626	0.0103711	0.450476	-0.352348	-0.0934956	0.386846	-0.351515	0.0483289	0.37788	-0.319144	0.120715	0.725491	-0.341892	0.154459	0.590559	-0.323978	0.0203196	0.696162	-0.377975	0.050927	0.568373	-0.350029	-0.203999	0.0942354	-0.28702	0.0905938	0.865379	-0.43643	0.0539441	0.869381	-0.471488	0.0218216	0.867772	-0.082591	0.0278642	0.875856	-0.0975606	0.000961931	1.3922	-0.00147459	0.0554456	1.36419	-0.143609	-0.0352043	1.06921	0.0570065	-0.0418329	1.06122	-0.00955104	0.0195936	1.00401	0.0791807	0.0429927	1.25843	0.0373342	0.0751724	0.842443	0.0501952	0.0345512	0.840955	0.0848717	0.104429	0.95901	-0.0609529	-0.106067	0.979428	-0.148089	0.215946	0.0434264	-0.0618152	0.0954206	0.088151	-0.0982115	0.0368124	0.0597843	-0.15283	0.128505	0.498636	-0.0537601	0.16284	0.290691	-0.0769664	0.104525	0.40201	-0.0264889	0.0907674	0.287863	-0.033355	0.168883	0.403034	-0.0660697	0.114011	0.783287	-0.019149	0.148146	0.678172	-0.0416773	0.107344	0.635044	-0.00643891	0.0133717	0.742966	0.00529253	0.0501576	0.636971	-0.0170007	0.249964	0.0757078	-0.116142
24	0.23	-0.0591097	1.43993	-0.165526	0.116688	0.944394	-0.313598	-0.0871478	0.976752	-0.241805	-0.221766	0.117595	-0.333609	0.0376847	0.858646	-0.270773	0.0521839	0.868602	-0.263779	0.0260806	1.41704	-0.321447	0.0665199	1.37121	-0.188963	-0.2242	0.237096	-0.291092	-0.296255	0.268745	-0.23249	-0.00121741	1.09349	-0.424978	-0.0155794	1.07974	-0.347178	0.0485999	1.03832	-0.442239	0.0548462	1.27967	-0.389366	0.101404	0.47405	-0.332585	0.0346055	0.453399	-0.350652	-0.067347	0.387034	-0.350031	0.0745394	0.381646	-0.3169	0.137619	0.730686	-0.33992	0.17471	0.596654	-0.321785	0.0381067	0.698846	-0.376508	0.0718866	0.571865	-0.348418	-0.167018	0.0937533	-0.285123	0.101586	0.867448	-0.434518	0.0649075	0.871336	-0.469575	0.0328297	0.869998	-0.0816175	0.0388135	0.878489	-0.0964821	0.012573	1.39602	-0.00129508	0.0667203	1.36728	-0.143407	-0.0222817	1.07305	0.0588027	-0.0291972	1.06482	-0.00764173	0.0333696	1.00824	0.0805533	0.0548118	1.26252	0.0380991	0.0903166	0.847281	0.0515181	0.0501745	0.845469	0.0861617	0.115489	0.960926	-0.0594065	-0.0947585	0.982379	-0.146589	0.215925	0.0432234	-0.0616402	0.0955664	0.0882879	-0.0981022	0.0369094	0.060044	-0.152763	0.131559	0.498747	-0.0525815	0.164209	0.290564	-0.0759912	0.106519	0.402239	-0.0255346	0.0919801	0.288197	-0.0326246	0.171102	0.402851	-0.0648329	0.122387	0.783773	-0.0176422	0.154673	0.678045	-0.040137	0.112865	0.635577	-0.00517989	0.0216434	0.744475	0.00573256	0.055957	0.638558	-0.0161279	0.250144	0.0754321	-0.115973
25	0.24	-0.0479123	1.44278	-0.165516	0.128239	0.947819	-0.311861	-0.0757973	0.980025	-0.240531	-0.184879	0.113249	-0.331634	0.0489314	0.861943	-0.269823	0.0632824	0.871867	-0.262491	0.0370762	1.41947	-0.321362	0.0777891	1.37405	-0.188836	-0.194553	0.232341	-0.289422	-0.268489	0.26	-0.231134	0.0100034	1.09555	-0.423599	-0.00439351	1.08209	-0.345828	0.0598038	1.04038	-0.440712	0.0660501	1.2819	-0.388666	0.124767	0.479026	-0.330398	0.0582485	0.456276	-0.348935	-0.0413772	0.386682	-0.348586	0.100542	0.38559	-0.314605	0.154092	0.735909	-0.338105	0.194438	0.602852	-0.319649	0.055433	0.701608	-0.37505	0.0923255	0.5755	-0.346803	-0.129142	0.0926204	-0.283008	0.112708	0.869474	-0.432585	0.0760626	0.87326	-0.467691	0.0436156	0.872266	-0.0806196	0.0496147	0.881167	-0.0953607	0.0240705	1.39988	-0.00123546	0.0779914	1.37033	-0.143278	-0.00951237	1.07696	0.0606236	-0.0167878	1.06848	-0.00569719	0.0470433	1.01258	0.0819239	0.0664763	1.26668	0.0388512	0.105467	0.852263	0.0527844	0.065745	0.850086	0.0874219	0.126347	0.962885	-0.0578503	-0.0835905	0.985325	-0.145253	0.215909	0.0430375	-0.0614862	0.0956909	0.0884194	-0.0980037	0.0369762	0.0602836	-0.152676	0.134314	0.498889	-0.0515044	0.165467	0.290514	-0.0751889	0.108394	0.402483	-0.0246496	0.0931825	0.288538	-0.0319257	0.173107	0.402746	-0.0637945	0.130522	0.784088	-0.0161795	0.160859	0.677833	-0.0385606	0.118	0.636072	-0.00399318	0.0297787	0.745847	0.00622522	0.0613567	0.640125	-0.0154564	0.250312	0.0752067	-0.115783
